<?xml version="1.0" encoding="UTF-8"?>
<!DOCTYPE svg PUBLIC "-//W3C//DTD SVG 1.1//EN" "http://www.w3.org/Graphics/SVG/1.1/DTD/svg11.dtd">
<!-- Creator: CorelDRAW 2017 -->
<svg xmlns="http://www.w3.org/2000/svg" xml:space="preserve" width="118" height="84" version="1.1" style="shape-rendering:geometricPrecision; text-rendering:geometricPrecision; image-rendering:optimizeQuality; fill-rule:evenodd; clip-rule:evenodd"
viewBox="0 0 118900 84000"
 xmlns:xlink="http://www.w3.org/1999/xlink">
 <defs>
  <style type="text/css">
   <![CDATA[
    .fil0 {fill:#FFC700}
   ]]>
  </style>
 </defs>
 <g id="Слой_x0020_1">
  <metadata id="CorelCorpID_0Corel-Layer"/>
  <path class="fil0" d="M86005.56 39726.8c-11.79,-0.09 -13.79,4.35 -5.99,13.33l151.03 172.94c1.05,1.21 1.93,2.64 2.55,4.18 3.07,7.59 -0.54,16.21 -8.06,19.25 -1.57,0.63 -3.23,0.99 -4.92,1.05 -22.62,0.82 -44.59,-4.57 -65.9,-16.18 -96.6,-52.89 -193.53,-109.31 -290.76,-169.26 -53.34,-32.93 -86.54,-61.91 -99.6,-86.95 -26.12,-50.07 -20.14,-99.96 17.96,-149.66 26.12,-34.29 68.03,-55.38 108.58,-69.12 89.43,-30.3 189.03,-56.47 298.79,-78.51 27.89,-5.71 53.2,11.29 74.01,28.57 3.81,3.27 4.99,7.3 3.54,12.11 -11.88,37.74 -28.66,61.59 -50.34,71.57 -54.24,25.03 -107.58,47.67 -160.01,67.89 -6.17,2.45 -9.84,6.9 -11.02,13.34 -0.91,5.53 1.41,8.52 6.94,8.98 527.78,45.31 1048.48,-82.86 1366.86,-537.31 70.21,-100.27 120.83,-211.71 166,-322.46 22.31,-54.61 36.74,-124.41 43.27,-209.4 37.01,-482.74 -96.74,-902.81 -401.25,-1260.19 -28.93,-34.02 -73.51,-73.16 -133.74,-117.43 -4.35,-3.17 -6.93,-8.24 -6.93,-13.62 0,-4.1 1.5,-8.06 4.2,-11.14l4.63 -5.31c7.26,-8.34 15.56,-9.66 24.9,-3.94 43.68,26.26 88.44,43.81 127.9,77.96 56.05,48.26 93.79,84.77 113.2,109.53 344.23,439.89 480.02,966.03 319.47,1507.83 -11.88,40.09 -27.67,80.41 -47.35,120.96 -25.85,53.2 -47.21,107.08 -77.96,157.28 -127.17,207.63 -302.92,366.73 -527.24,477.3 -215.52,106.22 -443.87,166.18 -685.06,179.88 -90.98,5.17 -176.88,7.34 -257.7,6.53z"/>
 </g>
</svg>
