<svg width="420" height="116" viewBox="0 0 420 116" fill="none" xmlns="http://www.w3.org/2000/svg">
<mask id="path-1-outside-1_14134_18" maskUnits="userSpaceOnUse" x="-1" y="-2" width="423" height="120" fill="black">
<rect fill="white" x="-1" y="-2" width="423" height="120"/>
<path d="M86.55 81.15C86.55 100.65 71.7 115.05 46.05 115.05C21.75 115.05 2.7 103.8 1.2 79.95H36.6C37.2 87.75 41.4 89.1 44.7 89.1C48 89.1 51.15 87.6 51.15 83.85C51 69.45 0.9 74.7 1.5 38.4C1.5 17.1 19.5 6 42.15 6C67.8 6 84.3 18.3 85.2 40.35H49.35C49.05 33.9 45.6 31.95 42 31.95C39.3 31.95 37.2 33.75 37.2 37.35C37.2 50.7 86.55 48.45 86.55 81.15ZM171.6 114L166.35 97.95H130.95L125.7 114H90.75L129.6 7.8H168L206.7 114H171.6ZM158.25 72.9L148.65 43.35L139.05 72.9H158.25ZM214.266 7.8H247.566V88.8H279.666V114H214.266V7.8ZM360.945 7.8V34.35H323.445V47.4H356.445V72.45H323.445V87.45H360.945V114H290.145V7.8H360.945ZM385.944 71.85L382.044 0.749992H418.344L414.444 71.85H385.944ZM419.244 98.85C419.244 108 411.894 115.2 400.194 115.2C388.344 115.2 380.994 108 380.994 98.85C380.994 89.55 388.344 82.2 400.194 82.2C411.894 82.2 419.244 89.55 419.244 98.85Z"/>
</mask>
<path d="M1.2 79.95V77.95H-0.929738L-0.796056 80.0755L1.2 79.95ZM36.6 79.95L38.5941 79.7966L38.4521 77.95H36.6V79.95ZM51.15 83.85H53.15V83.8396L53.1499 83.8292L51.15 83.85ZM1.5 38.4L3.49973 38.4331L3.5 38.4165V38.4H1.5ZM85.2 40.35V42.35H87.2833L87.1983 40.2684L85.2 40.35ZM49.35 40.35L47.3522 40.4429L47.4409 42.35H49.35V40.35ZM84.55 81.15C84.55 90.3631 81.0575 98.2739 74.6038 103.906C68.1288 109.556 58.5086 113.05 46.05 113.05V117.05C59.2414 117.05 69.8712 113.344 77.2337 106.919C84.6175 100.476 88.55 91.4369 88.55 81.15H84.55ZM46.05 113.05C34.18 113.05 23.7961 110.299 16.2493 104.825C8.76514 99.3961 3.91022 91.1796 3.19606 79.8245L-0.796056 80.0755C-0.0102148 92.5704 5.40986 101.904 13.9007 108.063C22.3289 114.176 33.62 117.05 46.05 117.05V113.05ZM1.2 81.95H36.6V77.95H1.2V81.95ZM34.6059 80.1034C34.932 84.3423 36.2713 87.206 38.339 88.9711C40.3828 90.7159 42.8062 91.1 44.7 91.1V87.1C43.2938 87.1 41.9672 86.8091 40.936 85.9289C39.9287 85.069 38.868 83.3577 38.5941 79.7966L34.6059 80.1034ZM44.7 91.1C46.6114 91.1 48.671 90.6717 50.3129 89.5173C52.0456 88.299 53.15 86.3761 53.15 83.85H49.15C49.15 85.0739 48.6794 85.776 48.0121 86.2452C47.254 86.7783 46.0886 87.1 44.7 87.1V91.1ZM53.1499 83.8292C53.1242 81.3617 51.9993 79.3805 50.3217 77.7971C48.6928 76.2596 46.4817 75.032 44.0592 73.9516C41.6195 72.8635 38.8025 71.856 35.8812 70.8262C32.9343 69.7875 29.8585 68.7186 26.7913 67.4825C20.6402 65.0035 14.7482 61.9359 10.4307 57.4101C6.17874 52.953 3.35841 46.9827 3.49973 38.4331L-0.499727 38.3669C-0.65841 47.9673 2.55876 54.9533 7.53647 60.1711C12.4487 65.3204 18.9785 68.6465 25.2962 71.1925C28.4634 72.4689 31.6337 73.5703 34.5514 74.5987C37.4948 75.6362 40.161 76.5928 42.4299 77.6047C44.716 78.6243 46.4388 79.6326 47.5761 80.706C48.6647 81.7335 49.1383 82.7383 49.1501 83.8708L53.1499 83.8292ZM3.5 38.4C3.5 28.3891 7.69536 20.8826 14.5227 15.8189C21.416 10.7062 31.1212 8 42.15 8V4C30.5288 4 19.909 6.84381 12.1398 12.6061C4.30464 18.4174 -0.5 27.1109 -0.5 38.4H3.5ZM42.15 8C54.6797 8 64.7344 11.0061 71.7229 16.4807C78.6603 21.9153 82.7731 29.9327 83.2017 40.4316L87.1983 40.2684C86.7269 28.7173 82.1397 19.5597 74.1896 13.3318C66.2906 7.1439 55.2703 4 42.15 4V8ZM85.2 38.35H49.35V42.35H85.2V38.35ZM51.3478 40.2571C51.1822 36.6955 50.1268 34.0415 48.2963 32.2873C46.4688 30.5359 44.1488 29.95 42 29.95V33.95C43.4512 33.95 44.6562 34.3391 45.5287 35.1752C46.3982 36.0085 47.2178 37.5545 47.3522 40.4429L51.3478 40.2571ZM42 29.95C40.1988 29.95 38.4437 30.5595 37.1435 31.9162C35.8456 33.2705 35.2 35.1603 35.2 37.35H39.2C39.2 35.9397 39.6044 35.1295 40.0315 34.6838C40.4563 34.2405 41.1012 33.95 42 33.95V29.95ZM35.2 37.35C35.2 39.7211 36.3237 41.6378 37.9441 43.1748C39.5263 44.6756 41.6835 45.9189 44.0593 47.037C46.4533 48.1636 49.2222 49.2316 52.1065 50.3236C55.0143 51.4246 58.0567 52.5564 61.099 53.8371C73.3791 59.0066 84.55 66.1501 84.55 81.15H88.55C88.55 63.4499 75.0459 55.3684 62.651 50.1504C59.5245 48.8343 56.3982 47.6715 53.5228 46.5828C50.6239 45.4852 47.9952 44.4684 45.7626 43.4177C43.5118 42.3585 41.8135 41.3319 40.6969 40.2727C39.6185 39.2497 39.2 38.3164 39.2 37.35H35.2ZM171.6 114L169.699 114.622L170.15 116H171.6V114ZM166.35 97.95L168.251 97.3282L167.8 95.95H166.35V97.95ZM130.95 97.95V95.95H129.5L129.049 97.3282L130.95 97.95ZM125.7 114V116H127.15L127.601 114.622L125.7 114ZM90.75 114L88.8717 113.313L87.8887 116H90.75V114ZM129.6 7.8V5.8H128.202L127.722 7.11289L129.6 7.8ZM168 7.8L169.879 7.11523L169.4 5.8H168V7.8ZM206.7 114V116H209.557L208.579 113.315L206.7 114ZM158.25 72.9V74.9H161.003L160.152 72.282L158.25 72.9ZM148.65 43.35L150.552 42.732L148.65 36.877L146.748 42.732L148.65 43.35ZM139.05 72.9L137.148 72.282L136.297 74.9H139.05V72.9ZM173.501 113.378L168.251 97.3282L164.449 98.5718L169.699 114.622L173.501 113.378ZM166.35 95.95H130.95V99.95H166.35V95.95ZM129.049 97.3282L123.799 113.378L127.601 114.622L132.851 98.5718L129.049 97.3282ZM125.7 112H90.75V116H125.7V112ZM92.6283 114.687L131.478 8.48711L127.722 7.11289L88.8717 113.313L92.6283 114.687ZM129.6 9.8H168V5.8H129.6V9.8ZM166.121 8.48476L204.821 114.685L208.579 113.315L169.879 7.11523L166.121 8.48476ZM206.7 112H171.6V116H206.7V112ZM160.152 72.282L150.552 42.732L146.748 43.968L156.348 73.518L160.152 72.282ZM146.748 42.732L137.148 72.282L140.952 73.518L150.552 43.968L146.748 42.732ZM139.05 74.9H158.25V70.9H139.05V74.9ZM214.266 7.8V5.8H212.266V7.8H214.266ZM247.566 7.8H249.566V5.8H247.566V7.8ZM247.566 88.8H245.566V90.8H247.566V88.8ZM279.666 88.8H281.666V86.8H279.666V88.8ZM279.666 114V116H281.666V114H279.666ZM214.266 114H212.266V116H214.266V114ZM214.266 9.8H247.566V5.8H214.266V9.8ZM245.566 7.8V88.8H249.566V7.8H245.566ZM247.566 90.8H279.666V86.8H247.566V90.8ZM277.666 88.8V114H281.666V88.8H277.666ZM279.666 112H214.266V116H279.666V112ZM216.266 114V7.8H212.266V114H216.266ZM360.945 7.8H362.945V5.8H360.945V7.8ZM360.945 34.35V36.35H362.945V34.35H360.945ZM323.445 34.35V32.35H321.445V34.35H323.445ZM323.445 47.4H321.445V49.4H323.445V47.4ZM356.445 47.4H358.445V45.4H356.445V47.4ZM356.445 72.45V74.45H358.445V72.45H356.445ZM323.445 72.45V70.45H321.445V72.45H323.445ZM323.445 87.45H321.445V89.45H323.445V87.45ZM360.945 87.45H362.945V85.45H360.945V87.45ZM360.945 114V116H362.945V114H360.945ZM290.145 114H288.145V116H290.145V114ZM290.145 7.8V5.8H288.145V7.8H290.145ZM358.945 7.8V34.35H362.945V7.8H358.945ZM360.945 32.35H323.445V36.35H360.945V32.35ZM321.445 34.35V47.4H325.445V34.35H321.445ZM323.445 49.4H356.445V45.4H323.445V49.4ZM354.445 47.4V72.45H358.445V47.4H354.445ZM356.445 70.45H323.445V74.45H356.445V70.45ZM321.445 72.45V87.45H325.445V72.45H321.445ZM323.445 89.45H360.945V85.45H323.445V89.45ZM358.945 87.45V114H362.945V87.45H358.945ZM360.945 112H290.145V116H360.945V112ZM292.145 114V7.8H288.145V114H292.145ZM290.145 9.8H360.945V5.8H290.145V9.8ZM385.944 71.85L383.947 71.9595L384.051 73.85H385.944V71.85ZM382.044 0.749992V-1.25001H379.931L380.047 0.859532L382.044 0.749992ZM418.344 0.749992L420.341 0.859532L420.457 -1.25001H418.344V0.749992ZM414.444 71.85V73.85H416.337L416.441 71.9595L414.444 71.85ZM387.941 71.7405L384.041 0.640452L380.047 0.859532L383.947 71.9595L387.941 71.7405ZM382.044 2.74999H418.344V-1.25001H382.044V2.74999ZM416.347 0.640452L412.447 71.7405L416.441 71.9595L420.341 0.859532L416.347 0.640452ZM414.444 69.85H385.944V73.85H414.444V69.85ZM417.244 98.85C417.244 102.864 415.643 106.405 412.775 108.964C409.898 111.531 405.633 113.2 400.194 113.2V117.2C406.455 117.2 411.716 115.269 415.438 111.949C419.17 108.62 421.244 103.986 421.244 98.85H417.244ZM400.194 113.2C394.674 113.2 390.372 111.527 387.478 108.96C384.594 106.402 382.994 102.863 382.994 98.85H378.994C378.994 103.987 381.069 108.623 384.823 111.952C388.567 115.273 393.865 117.2 400.194 117.2V113.2ZM382.994 98.85C382.994 94.7501 384.604 91.1318 387.492 88.5212C390.387 85.9035 394.685 84.2 400.194 84.2V80.2C393.854 80.2 388.551 82.1715 384.809 85.5538C381.06 88.9432 378.994 93.6499 378.994 98.85H382.994ZM400.194 84.2C405.622 84.2 409.882 85.8997 412.761 88.5174C415.634 91.1289 417.244 94.7494 417.244 98.85H421.244C421.244 93.6506 419.179 88.9461 415.452 85.5576C411.731 82.1753 406.466 80.2 400.194 80.2V84.2Z" fill="white" mask="url(#path-1-outside-1_14134_18)"/>
</svg>
